<!--
    Using this technique: https://www.youtube.com/watch?v=UTHgr6NLeEw
    SVG From Figma: https://www.figma.com/file/liRKq9bZtjwqnygjRcpkt3/SVG-Animate?node-id=1%3A2
     <svg width="120" height="100" viewBox="0 0 120 100" fill="none" xmlns="http://www.w3.org/2000/svg">
    <g id="triangles">
    <g id="lightGroup">
    <path id="light1" opacity="0.7" d="M51 48.2679C52.3333 49.0378 52.3333 50.9622 51 51.7321L16.5 71.6506C15.1667 72.4204 13.5 71.4582 13.5 69.9186L13.5 30.0814C13.5 28.5418 15.1667 27.5796 16.5 28.3494L51 48.2679Z" fill="#43C4ED"/>
    </g>
    <g id="darkGroup">
    <path id="dark1" opacity="0.7" d="M66 48.2679C67.3334 49.0378 67.3333 50.9622 66 51.7321L31.5 71.6506C30.1667 72.4204 28.5 71.4582 28.5 69.9186L28.5 30.0814C28.5 28.5418 30.1667 27.5796 31.5 28.3494L66 48.2679Z" fill="#635BFF"/>
    <path id="dark2" opacity="0.7" d="M51 48.2679C52.3333 49.0378 52.3333 50.9622 51 51.7321L16.5 71.6506C15.1667 72.4204 13.5 71.4582 13.5 69.9186L13.5 30.0814C13.5 28.5418 15.1667 27.5796 16.5 28.3494L51 48.2679Z" fill="#635BFF"/>
    </g>
    </g>
    </svg> 
    Prettified with https://www.cleancss.com/xml-beautify/ below
    -->


<svg width="120" height="100" viewBox="0 0 120 100" fill="none" xmlns="http://www.w3.org/2000/svg">
    <g id="triangles">
        <g id="lightGroup">
            <path 
            id="light1" 
            opacity="0.7" 
            d="M51 48.2679C52.3333 49.0378 52.3333 50.9622 51 51.7321L16.5 71.6506C15.1667 72.4204 13.5 71.4582 13.5 69.9186L13.5 30.0814C13.5 28.5418 15.1667 27.5796 16.5 28.3494L51 48.2679Z" fill="#43C4ED"/>
        </g>
        <g id="darkGroup">
            <path 
                id="dark1" 
                opacity="0.7" 
                d="M66 48.2679C67.3334 49.0378 67.3333 50.9622 66 51.7321L31.5 71.6506C30.1667 72.4204 28.5 71.4582 28.5 69.9186L28.5 30.0814C28.5 28.5418 30.1667 27.5796 31.5 28.3494L66 48.2679Z" fill="#635BFF"/>
            <path id="dark2" opacity="0.7" d="M51 48.2679C52.3333 49.0378 52.3333 50.9622 51 51.7321L16.5 71.6506C15.1667 72.4204 13.5 71.4582 13.5 69.9186L13.5 30.0814C13.5 28.5418 15.1667 27.5796 16.5 28.3494L51 48.2679Z" fill="#635BFF"/>
        </g>
    </g>
</svg>
